DataType=double
version=3
OpenSimVersion=4.5-2023-11-26-efcdfd3eb
endheader
time	EMG01_right_gast_med	EMG02_right_glut_max	EMG03_left_gast_med	EMG04_left_glut_max	EMG05_right_glut_med	EMG06_right_bic_fem	EMG07_right_rect_fem	EMG08_right_vast_lat	EMG09_right_vast_med	EMG10_right_tens_fasc_lat	EMG11_left_glut_med	EMG12_left_bic_fem	EMG13_left_rect_fem	EMG14_left_vast_lat	EMG15_left_vast_med	EMG16_left_tens_fasc_lat
1.92	23.58460666839028	33.29550664829461	47.72243813303309	28.97675321953826	140.2772569387506	59.8575152265815	10.63372516922111	16.60135546374995	67.48390123503891	39.10811444595253	4.222141175684637	4.575029549367132	7.027112168167408	6.523716415111967	10.06049386643854	17.50620952362728
1.93	25.18231080045198	35.11330096738273	45.85020508181652	31.49918003121045	146.7324145917957	59.69861054342899	10.87811633615622	17.30864308246606	71.75494843075811	41.17895487446536	3.968553267973536	4.485992223546705	6.893753305336499	6.613687884092339	10.59935179274041	16.95511302132748
1.94	26.84163216190775	36.91443886550188	43.86538949614894	34.14945624896056	152.6082242653133	59.36057440363156	11.07718347267549	17.96971516364091	75.84999330785517	43.20030459703994	3.718010956608007	4.363668612027635	6.737755511594476	6.68721890761694	11.12859037936849	16.71508603481753
1.95	28.56290964332454	38.67082172210411	41.7824479616	36.90384754903702	157.8446005352953	58.84520231584472	11.22898579282927	18.5776186478315	79.72807978195942	45.1484576449111	3.471860675225659	4.211046477067494	6.560467999872204	6.7436761509499	11.63937568700699	16.78028006834038
1.96	30.34558760886261	40.35514447934542	39.61703911171388	39.73647355925643	162.3906758351465	58.15623007521134	11.33226093403524	19.12591899404791	83.35031100026808	47.00098152721797	3.231499630238622	4.03165091851779	6.363540653276324	6.782737670637351	12.12376005940015	17.14160130848802
1.97	32.18824737861574	41.9413100339727	37.38576784631034	42.61964257591623	166.205544759097	57.29937135233284	11.3864542232721	19.60878449697289	86.6803967844094	48.73704357719294	2.998365359312023	3.829498937482901	6.148903031060547	6.804398124155357	12.57472878319241	17.78691463388813
1.98	34.08865507223629	43.40483098319207	35.10591652528816	45.52424001633934	169.2588149368066	56.28231099289204	11.39173547986637	20.02106433956242	89.68517307886572	50.33770216661837	2.773926123716315	3.609051768076992	5.918742765509228	6.808975705955284	12.98623907843202	18.70128685797309
1.99	36.04382308894083	44.72321005661056	32.7951702522342	48.42016616582148	171.5309440482014	55.1146503225315	11.34900241900687	20.35835952409354	92.33508427655022	51.78615495150076	2.559672093797087	3.375165013999365	5.675483419601289	6.797120521270999	13.35325235099902	19.86726421591996
2	38.05008283616142	45.87628951529474	30.47134249817003	51.27681714872818	173.0133499851787	53.80780387022746	11.25987047769743	20.61708622106166	94.60461749661494	53.06793742741475	2.357107299979087	3.133036517759725	5.421761876779317	6.769823970326796	13.6717602632855	21.26517881387782
2.01	40.10316704731648	46.84655949209401	28.15210647403928	54.06360117447017	173.7082896084837	52.37484990488358	11.12664940424864	20.79453120715835	96.47267672079238	54.17106739516532	2.167742296132913	2.888151816377202	5.160405311678195	6.728428532461878	13.9388047453353	22.87347860827634
2.02	42.19830083933999	47.61941586673026	25.85473716434656	56.75048001901064	173.6285111884721	50.8303394424371	10.95230725735823	20.88889884373755	97.92288515797107	55.08613431252294	1.993087419888043	2.646227008853835	4.894407729661856	6.674637099446497	14.15249170917313	24.66907536495408
2.03	44.33030110877412	48.1833598379531	23.59586867334592	59.3085235202448	172.7966958421466	49.19006972794149	10.74042274530849	20.8993485767398	98.94380650494362	55.80633632651764	1.834646451863578	2.413148897661378	4.626905982232069	6.610520745939662	14.31199798176207	26.62770494581371
2.04	46.49368383926872	48.53013372402165	21.39127127940203	61.71046273855446	171.2447126811571	47.47082897631561	10.49512713691159	20.82602132990043	99.52907927946244	56.32747099672257	1.693910385280145	2.194912365122388	4.361155068335555	6.538523578409417	14.41757079080128	28.72429427928924
2.05	48.68277861708734	48.65479021462474	19.25565219998139	63.93122553382061	169.012719447809	45.69011983798909	10.22103716899486	20.6700525371381	99.67746201650945	56.64788752372328	1.572350925975133	1.99755507220378	4.100502415589265	6.461463079373197	14.47051898920009	30.93332948083256
2.06	50.89184927090694	48.55569481265643	17.2024834573415	65.94843687923763	166.1481442645248	43.86586954124842	9.923180389926168	20.43356918494	99.39278966358597	56.76840870266693	1.471413261048021	1.827089693511942	3.84836074392246	6.382524171634027	14.47319509037702	33.22921956672481
2.07	53.11521900478233	48.23446342289219	15.24385939045676	67.7428656238359	162.7045849294107	42.0161344864194	9.606914291341155	20.11966847226273	98.68384242623841	56.6922302505858	1.392507583274728	1.689434022979428	3.608179125599106	6.305245136783692	14.42896709773206	35.58664983235596
2.08	55.34739756066161	47.69583898012169	13.39038537539802	69.29880002550753	158.7406606332694	40.1588062908484	9.277840523962158	19.73237666875483	97.56412839374296	56.4248038020806	1.33699886787694	1.590339401976758	3.383411992526464	6.233493648750954	14.34217900324026	37.98091829238836
2.09	57.5832067534004	46.9475125467826	11.6510983288906	70.604336309727	154.3188476489932	38.31132553047308	8.941715539880983	19.27658811605299	96.05158221996426	55.97370777244604	1.30619449627594	1.535318032968328	3.177486019185158	6.171431576677846	14.21809866002352	40.38824782342662
2.1	59.81789923190617	45.99989545637027	10.03341867388564	71.65156740108851	149.5043262444996	36.49040906684214	8.604359137197015	18.75798551570188	94.16818499259097	55.3485076935526	1.301329512699422	1.529569838637898	2.99376492030187	6.123467811361635	14.06285153832932	42.78606607638083
2.11	62.04726381089602	44.86584994905606	8.543132681311139	72.43666261657641	144.3638618568174	34.71179669353594	8.271562530573297	18.18294340747504	91.93951466282	54.56060502005031	1.323549542853681	1.577909599488388	2.835512245022191	6.094199090740294	13.88333880477935	45.15324521617141
2.12	64.26770952338025	43.5603862220166	7.184403457819474	72.95983396622029	138.9647400793911	32.99002250882755	7.94899763408102	17.55841718287444	89.39424048445494	53.62307138139675	1.373891624008808	1.684695164095507	2.705852313879772	6.088339563943397	13.68713840357259	47.47029454860858
2.13	66.47631983487703	42.10033376466156	5.959808286066049	73.22519096174402	133.373772157721	31.33821572693467	7.642129155618439	16.89182031890958	86.56357753441156	52.5504643965628	1.453263336128559	1.853757609798937	2.607729574393319	6.110640521805528	13.48238844423469	49.71950140285331
2.14	68.67086827117342	40.50399456191727	4.870399523436487	73.24049239185631	127.6563849703628	29.76793459482997	7.356130886716639	16.19089285174234	83.48071827671586	51.35862169821035	1.562420686541283	2.088334351589886	2.543866793066468	6.165802220387246	13.27765315943078	51.88501913900382
2.15	70.84978725395925	38.79078563398841	3.915785859467305	73.01680895178941	121.8758063042988	28.28903581153816	7.09580731343285	15.46356442747979	80.18025770984272	50.06443140055361	1.701945229219571	2.391006318733184	2.516722611653174	6.258380006167036	13.08177285233369	53.95290500935234
2.16	73.01208377108229	36.9808783809698	3.094230470857723	72.5681143989685	116.0923521830104	26.90958054804019	6.865521469149735	14.71781550660422	76.69762727461858	48.68557940994782	1.872220928994007	2.763640396644755	2.528449106318609	6.392687069938017	12.90370041703266	55.91111349944596
2.17	75.15719907443489	35.09484198902238	2.40276250079272	71.91082501866693	110.3628182374853	25.63577711681713	6.669129857274951	13.96154036397225	73.068550565949	47.24027646072305	2.073411315410091	3.207338359793937	2.580850136017149	6.572696186237017	12.7523280127586	57.7494521214099
2.18	77.28481453165722	33.15329767330881	1.837298282551685	71.06330741027701	104.7399725024384	24.47195976957386	6.509925277879209	13.20241536309575	69.32853131807991	45.74697024018042	2.305437500734604	3.722393524992606	2.675341418127872	6.801942778407978	12.63630821551934	59.45950721323005
